<mxfile host="app.diagrams.net" modified="2023-11-10T08:01:18.926Z" agent="Mozilla/5.0 (Macintosh; Intel Mac OS X 10_15_7) AppleWebKit/537.36 (KHTML, like Gecko) Chrome/119.0.0.0 Safari/537.36" etag="lKoF60XR61aoOiPWGHiy" version="22.1.0" type="github">
  <diagram name="Page-1" id="0CA7PKUP4lZXHTunYnvc">
    <mxGraphModel dx="904" dy="762" grid="1" gridSize="10" guides="1" tooltips="1" connect="1" arrows="1" fold="1" page="1" pageScale="1" pageWidth="827" pageHeight="1169" math="0" shadow="0">
      <root>
        <mxCell id="0" />
        <mxCell id="1" parent="0" />
        <mxCell id="fMFu6VQXjlJdAORSX311-16" value="" style="rounded=1;whiteSpace=wrap;html=1;fillColor=#f5f5f5;fontColor=#333333;strokeColor=#666666;dashed=1;" vertex="1" parent="1">
          <mxGeometry x="600" y="252.5" width="220" height="197.5" as="geometry" />
        </mxCell>
        <mxCell id="fMFu6VQXjlJdAORSX311-1" value="haproxy&lt;br&gt;(prod|uat|test)" style="rounded=1;whiteSpace=wrap;html=1;" vertex="1" parent="1">
          <mxGeometry x="430" y="270" width="120" height="60" as="geometry" />
        </mxCell>
        <mxCell id="fMFu6VQXjlJdAORSX311-2" value="&lt;i&gt;[env]&lt;/i&gt;-geantmap.geant.org:443" style="text;html=1;strokeColor=none;fillColor=none;align=center;verticalAlign=middle;whiteSpace=wrap;rounded=0;" vertex="1" parent="1">
          <mxGeometry x="154" y="260" width="260" height="45" as="geometry" />
        </mxCell>
        <mxCell id="fMFu6VQXjlJdAORSX311-4" value="" style="endArrow=classic;html=1;rounded=0;entryX=0;entryY=0.5;entryDx=0;entryDy=0;" edge="1" parent="1" target="fMFu6VQXjlJdAORSX311-1">
          <mxGeometry width="50" height="50" relative="1" as="geometry">
            <mxPoint x="130" y="300" as="sourcePoint" />
            <mxPoint x="440" y="370" as="targetPoint" />
          </mxGeometry>
        </mxCell>
        <mxCell id="fMFu6VQXjlJdAORSX311-5" value="client" style="shape=umlActor;verticalLabelPosition=bottom;verticalAlign=top;html=1;outlineConnect=0;" vertex="1" parent="1">
          <mxGeometry x="90" y="260" width="30" height="60" as="geometry" />
        </mxCell>
        <mxCell id="fMFu6VQXjlJdAORSX311-8" value="http(s)" style="text;html=1;strokeColor=none;fillColor=none;align=center;verticalAlign=middle;whiteSpace=wrap;rounded=0;" vertex="1" parent="1">
          <mxGeometry x="250" y="305" width="60" height="30" as="geometry" />
        </mxCell>
        <mxCell id="fMFu6VQXjlJdAORSX311-9" value="[env]-geantmap01.geant.org" style="rounded=1;whiteSpace=wrap;html=1;" vertex="1" parent="1">
          <mxGeometry x="630" y="180" width="170" height="60" as="geometry" />
        </mxCell>
        <mxCell id="fMFu6VQXjlJdAORSX311-10" value="[env]-geantmap02.geant.org" style="rounded=1;whiteSpace=wrap;html=1;dashed=1;" vertex="1" parent="1">
          <mxGeometry x="630" y="270" width="170" height="60" as="geometry" />
        </mxCell>
        <mxCell id="fMFu6VQXjlJdAORSX311-11" value="[env]-geantmap03.geant.org" style="rounded=1;whiteSpace=wrap;html=1;dashed=1;" vertex="1" parent="1">
          <mxGeometry x="630" y="360" width="170" height="60" as="geometry" />
        </mxCell>
        <mxCell id="fMFu6VQXjlJdAORSX311-12" value="" style="endArrow=classic;html=1;rounded=0;entryX=0;entryY=0.5;entryDx=0;entryDy=0;exitX=1;exitY=0.5;exitDx=0;exitDy=0;" edge="1" parent="1" source="fMFu6VQXjlJdAORSX311-1" target="fMFu6VQXjlJdAORSX311-9">
          <mxGeometry width="50" height="50" relative="1" as="geometry">
            <mxPoint x="140" y="310" as="sourcePoint" />
            <mxPoint x="440" y="310" as="targetPoint" />
          </mxGeometry>
        </mxCell>
        <mxCell id="fMFu6VQXjlJdAORSX311-13" value="" style="endArrow=classic;html=1;rounded=0;entryX=0;entryY=0.5;entryDx=0;entryDy=0;dashed=1;" edge="1" parent="1" source="fMFu6VQXjlJdAORSX311-1" target="fMFu6VQXjlJdAORSX311-10">
          <mxGeometry width="50" height="50" relative="1" as="geometry">
            <mxPoint x="560" y="310" as="sourcePoint" />
            <mxPoint x="640" y="220" as="targetPoint" />
          </mxGeometry>
        </mxCell>
        <mxCell id="fMFu6VQXjlJdAORSX311-14" value="" style="endArrow=classic;html=1;rounded=0;entryX=0;entryY=0.5;entryDx=0;entryDy=0;exitX=1;exitY=0.5;exitDx=0;exitDy=0;dashed=1;" edge="1" parent="1" source="fMFu6VQXjlJdAORSX311-1" target="fMFu6VQXjlJdAORSX311-11">
          <mxGeometry width="50" height="50" relative="1" as="geometry">
            <mxPoint x="560" y="310" as="sourcePoint" />
            <mxPoint x="640" y="310" as="targetPoint" />
          </mxGeometry>
        </mxCell>
        <mxCell id="fMFu6VQXjlJdAORSX311-15" value="https" style="text;html=1;strokeColor=none;fillColor=none;align=center;verticalAlign=middle;whiteSpace=wrap;rounded=0;" vertex="1" parent="1">
          <mxGeometry x="550" y="230" width="60" height="30" as="geometry" />
        </mxCell>
        <mxCell id="fMFu6VQXjlJdAORSX311-17" value="someday" style="text;html=1;strokeColor=none;fillColor=none;align=center;verticalAlign=middle;whiteSpace=wrap;rounded=0;" vertex="1" parent="1">
          <mxGeometry x="720" y="420" width="60" height="30" as="geometry" />
        </mxCell>
      </root>
    </mxGraphModel>
  </diagram>
</mxfile>
